<svg width="388" height="53" viewBox="0 0 388 53" fill="none" xmlns="http://www.w3.org/2000/svg">
<path d="M46.5692 52H34.0862L13.2082 20.391V52H0.725219V0.753998H13.2082L34.0862 32.509V0.753998H46.5692V52ZM68.1008 10.755V21.121H84.8178V30.757H68.1008V41.999H87.0078V52H55.6178V0.753998H87.0078V10.755H68.1008ZM113.654 52.511C109.907 52.511 106.549 51.9027 103.58 50.686C100.611 49.4693 98.2266 47.6687 96.4259 45.284C94.6739 42.8993 93.7493 40.028 93.6519 36.67H106.938C107.133 38.568 107.79 40.028 108.909 41.05C110.028 42.0233 111.488 42.51 113.289 42.51C115.138 42.51 116.598 42.0963 117.669 41.269C118.74 40.393 119.275 39.2007 119.275 37.692C119.275 36.4267 118.837 35.3803 117.961 34.553C117.134 33.7257 116.087 33.0443 114.822 32.509C113.605 31.9737 111.853 31.3653 109.566 30.684C106.257 29.662 103.556 28.64 101.463 27.618C99.3703 26.596 97.5696 25.0873 96.0609 23.092C94.5523 21.0967 93.7979 18.493 93.7979 15.281C93.7979 10.5117 95.5256 6.78867 98.9809 4.112C102.436 1.38667 106.938 0.0239991 112.486 0.0239991C118.131 0.0239991 122.682 1.38667 126.137 4.112C129.592 6.78867 131.442 10.536 131.685 15.354H118.18C118.083 13.6993 117.474 12.4097 116.355 11.485C115.236 10.5117 113.8 10.025 112.048 10.025C110.539 10.025 109.323 10.4387 108.398 11.266C107.473 12.0447 107.011 13.1883 107.011 14.697C107.011 16.3517 107.79 17.6413 109.347 18.566C110.904 19.4907 113.338 20.4883 116.647 21.559C119.956 22.6783 122.633 23.749 124.677 24.771C126.77 25.793 128.57 27.2773 130.079 29.224C131.588 31.1707 132.342 33.677 132.342 36.743C132.342 39.663 131.588 42.3153 130.079 44.7C128.619 47.0847 126.478 48.9827 123.655 50.394C120.832 51.8053 117.499 52.511 113.654 52.511ZM176.889 0.753998V10.755H163.311V52H150.828V10.755H137.25V0.753998H176.889Z" fill="#0F172A"/>
<path d="M229.649 25.72C232.617 26.3527 235.002 27.837 236.803 30.173C238.603 32.4603 239.504 35.0883 239.504 38.057C239.504 42.3397 237.995 45.7463 234.978 48.277C232.009 50.759 227.848 52 222.495 52H198.624V0.753998H221.692C226.899 0.753998 230.963 1.94633 233.883 4.331C236.851 6.71566 238.336 9.952 238.336 14.04C238.336 17.0573 237.533 19.5637 235.927 21.559C234.369 23.5543 232.277 24.9413 229.649 25.72ZM211.107 21.486H219.283C221.327 21.486 222.884 21.048 223.955 20.172C225.074 19.2473 225.634 17.909 225.634 16.157C225.634 14.405 225.074 13.0667 223.955 12.142C222.884 11.2173 221.327 10.755 219.283 10.755H211.107V21.486ZM220.305 41.926C222.397 41.926 224.003 41.4637 225.123 40.539C226.291 39.5657 226.875 38.1787 226.875 36.378C226.875 34.5773 226.266 33.166 225.05 32.144C223.882 31.122 222.251 30.611 220.159 30.611H211.107V41.926H220.305ZM259.227 42.364H275.579V52H246.744V0.753998H259.227V42.364ZM305.769 52.511C300.951 52.511 296.522 51.3917 292.483 49.153C288.492 46.9143 285.305 43.7997 282.92 39.809C280.584 35.7697 279.416 31.2437 279.416 26.231C279.416 21.2183 280.584 16.7167 282.92 12.726C285.305 8.73533 288.492 5.62067 292.483 3.382C296.522 1.14333 300.951 0.0239991 305.769 0.0239991C310.587 0.0239991 314.991 1.14333 318.982 3.382C323.021 5.62067 326.185 8.73533 328.472 12.726C330.808 16.7167 331.976 21.2183 331.976 26.231C331.976 31.2437 330.808 35.7697 328.472 39.809C326.136 43.7997 322.973 46.9143 318.982 49.153C314.991 51.3917 310.587 52.511 305.769 52.511ZM305.769 41.123C309.857 41.123 313.118 39.7603 315.551 37.035C318.033 34.3097 319.274 30.7083 319.274 26.231C319.274 21.705 318.033 18.1037 315.551 15.427C313.118 12.7017 309.857 11.339 305.769 11.339C301.632 11.339 298.323 12.6773 295.841 15.354C293.408 18.0307 292.191 21.6563 292.191 26.231C292.191 30.757 293.408 34.3827 295.841 37.108C298.323 39.7847 301.632 41.123 305.769 41.123ZM372.939 16.96C372.014 15.2567 370.676 13.967 368.924 13.091C367.22 12.1663 365.201 11.704 362.865 11.704C358.825 11.704 355.589 13.0423 353.156 15.719C350.722 18.347 349.506 21.8753 349.506 26.304C349.506 31.0247 350.771 34.7233 353.302 37.4C355.881 40.028 359.409 41.342 363.887 41.342C366.953 41.342 369.532 40.5633 371.625 39.006C373.766 37.4487 375.323 35.21 376.297 32.29H360.456V23.092H387.612V34.699C386.687 37.8137 385.105 40.7093 382.867 43.386C380.677 46.0627 377.878 48.2283 374.472 49.883C371.065 51.5377 367.22 52.365 362.938 52.365C357.876 52.365 353.35 51.27 349.36 49.08C345.418 46.8413 342.327 43.751 340.089 39.809C337.899 35.867 336.804 31.3653 336.804 26.304C336.804 21.2427 337.899 16.741 340.089 12.799C342.327 8.80833 345.418 5.718 349.36 3.528C353.302 1.28933 357.803 0.169997 362.865 0.169997C368.997 0.169997 374.155 1.65433 378.341 4.623C382.575 7.59167 385.373 11.704 386.736 16.96H372.939Z" fill="#E11D48"/>
</svg>
